<?xml version="1.0" standalone="no"?>
<!DOCTYPE svg PUBLIC "-//W3C//DTD SVG 20010904//EN"
 "http://www.w3.org/TR/2001/REC-SVG-20010904/DTD/svg10.dtd">
<svg version="1.0" xmlns="http://www.w3.org/2000/svg"
 width="232.000000pt" height="63.000000pt" viewBox="0 0 232.000000 63.000000"
 preserveAspectRatio="xMidYMid meet">

<g transform="translate(0.000000,63.000000) scale(0.100000,-0.100000)"
fill="#000000" stroke="none">
<path d="M0 540 c0 -65 3 -90 13 -90 6 0 138 -14 292 -30 153 -15 283 -27 286
-24 4 2 26 0 48 -5 49 -11 59 -1 40 37 -20 38 -30 47 -59 49 -14 1 -36 4 -50
7 -14 3 -99 14 -190 25 -91 10 -196 23 -235 27 -54 7 -5 10 221 14 234 4 294
8 308 19 17 14 17 16 0 28 -17 12 -17 13 2 14 18 0 18 1 -1 9 -11 5 -167 9
-347 9 l-328 1 0 -90z"/>
<path d="M1185 529 c-10 -26 -1 -234 10 -232 13 4 19 223 6 236 -7 7 -12 5
-16 -4z"/>
<path d="M1620 415 c0 -77 4 -125 10 -125 6 0 10 48 10 125 0 77 -4 125 -10
125 -6 0 -10 -48 -10 -125z"/>
<path d="M920 523 c-20 -7 -50 -34 -50 -44 0 -4 38 -33 85 -63 47 -31 85 -60
85 -65 0 -6 -9 -15 -19 -21 -40 -21 -101 -7 -128 29 -13 19 -28 9 -20 -13 18
-46 118 -64 166 -29 51 39 47 44 -129 154 -13 8 -13 10 0 19 42 28 96 24 131
-11 23 -23 39 -17 23 9 -22 35 -96 53 -144 35z"/>
<path d="M1330 415 c0 -129 16 -157 22 -39 3 72 5 78 37 106 34 30 66 34 114
13 12 -5 17 -3 17 8 0 33 -88 37 -137 7 -33 -20 -33 -20 -33 0 0 11 -4 20 -10
20 -6 0 -10 -45 -10 -115z"/>
<path d="M1760 465 c0 -115 39 -165 131 -165 33 0 47 6 75 34 33 33 34 36 34
115 0 47 -4 81 -10 81 -6 0 -10 -28 -10 -65 0 -101 -31 -145 -100 -145 -22 0
-41 9 -61 29 -27 27 -29 35 -29 105 0 61 -3 76 -15 76 -12 0 -15 -14 -15 -65z"/>
<path d="M2143 510 c-18 -11 -33 -24 -33 -30 0 -5 38 -35 85 -65 47 -30 85
-58 85 -61 0 -16 -38 -33 -71 -34 -25 0 -44 8 -64 26 -28 26 -42 26 -32 0 18
-46 118 -64 166 -29 51 39 47 44 -129 154 -13 8 -13 10 0 19 41 28 99 23 127
-10 16 -19 33 -18 33 1 0 17 -64 49 -100 49 -19 0 -50 -9 -67 -20z"/>
<path d="M0 185 l0 -185 328 0 c348 1 362 3 362 49 0 19 -6 21 -52 22 -29 1
-60 3 -68 4 -8 1 -124 3 -257 4 l-243 1 0 90 0 90 33 1 c17 0 152 4 298 7 203
6 270 10 283 21 15 13 15 15 -1 27 -17 13 -17 13 0 14 9 0 17 4 17 10 0 5 -15
7 -32 5 -24 -4 -28 -3 -14 3 19 8 18 9 -5 15 -13 4 -165 7 -336 7 l-313 0 0
-185z"/>
<path d="M350 165 c107 -24 222 -47 255 -50 33 -4 63 -9 67 -11 4 -3 16 0 25
6 16 10 15 11 -5 7 -12 -3 -20 -1 -16 4 3 5 -1 9 -8 9 -7 1 -2 7 12 15 16 9
19 15 10 15 -10 1 -9 4 5 10 17 7 16 9 -10 10 -25 1 -27 3 -10 9 28 11 -146
21 -350 20 l-170 -1 195 -43z"/>
</g>
</svg>
